<?xml version="1.0" encoding="UTF-8"?>
<svg id="Layer_1" xmlns="http://www.w3.org/2000/svg" version="1.1" viewBox="0 0 130 36">
  <!-- Generator: Adobe Illustrator 29.0.1, SVG Export Plug-In . SVG Version: 2.1.0 Build 192)  -->
  <defs>
    <style>
      .st0 {
        fill: #4d4d4d;
        font-family: Supreme-MediumItalic, Supreme;
        font-size: 8px;
        font-style: italic;
        font-weight: 500;
      }

      .st1 {
        fill: #fff6e2;
      }

      .st2 {
        fill: #0f0f0f;
      }
    </style>
  </defs>
  <g>
    <polygon class="st2" points="35.1 35 1.1 35 1.1 1 34.8 1 35.1 35"/>
    <g>
      <polygon class="st1" points="15.3 9.5 15.3 17.8 11.2 20 11.2 10.9 15.3 9.5"/>
      <polygon class="st1" points="20.9 9.5 20.9 17.8 25 20 25 10.9 20.9 9.5"/>
      <polygon class="st1" points="25 22 25 26.7 20.9 26.7 20.9 23.1 18.1 22.1 15.3 23.1 15.3 26.7 11.2 26.7 11.2 22 15.3 20.2 18.1 18.9 20.9 20.2 25 22"/>
    </g>
  </g>
  <g>
    <path d="M60.8,12.6v-4.7h3.9v13.3h-3.9v-4.6h-19.3v4.6h-3.9V7.9h3.9v4.7h19.3Z"/>
    <path d="M66.3,8.1v-.9c0-.5.4-.9.9-.9h2.2c.5,0,.9.4.9.9v.9c0,.5-.4.9-.9.9h-2.2c-.5,0-.9-.4-.9-.9ZM66.3,21.2v-11.1h3.9v11.1h-3.9Z"/>
    <path d="M99,21.2h-4.8l-2.6-3.8h-15.7v3.8h-3.9V7.9h23.2c.6,0,1.1.1,1.6.3.5.2.9.5,1.3.8.4.3.7.7.9,1.2.2.5.3.9.3,1.4v1.9c0,.4,0,.8-.2,1.2-.2.4-.4.8-.7,1.1-.3.3-.6.6-1,.9-.4.2-.7.4-1.1.5l2.8,4ZM95.2,12.6h0c0-.3,0-.4-.3-.6-.2-.1-.4-.2-.8-.2h-18.4v1.6h18.4c.3,0,.6,0,.8-.2.2-.1.3-.3.3-.6Z"/>
    <path d="M123.8,21.2h-19.2c-.6,0-1.1-.1-1.6-.3-.5-.2-.9-.5-1.3-.9s-.7-.8-.9-1.3-.3-1-.3-1.6v-5.1c0-.6.1-1.1.3-1.6s.5-.9.9-1.3c.4-.4.8-.7,1.3-.9.5-.2,1-.3,1.6-.3h19.2c.6,0,1.1.1,1.6.3.5.2.9.5,1.3.9.4.4.7.8.9,1.3.2.5.3,1,.3,1.6v5.1c0,.6-.1,1.1-.3,1.6-.2.5-.5.9-.9,1.3s-.8.7-1.3.9c-.5.2-1,.3-1.6.3ZM124,15.7v-2.3c0-.4-.2-.8-.5-1.1-.3-.3-.7-.5-1.1-.5h-16.4c-.4,0-.8.2-1.1.5-.3.3-.5.7-.5,1.1v2.3c0,.4.2.8.5,1.1.3.3.7.5,1.1.5h16.4c.4,0,.8-.2,1.1-.5.3-.3.5-.7.5-1.1Z"/>
  </g>
  <text class="st0" transform="translate(37.6 28.8)"><tspan x="0" y="0">“choose your outfit!”</tspan></text>
</svg>