<?xml version="1.0" encoding="UTF-8"?>
<svg id="Layer_1" xmlns="http://www.w3.org/2000/svg" version="1.1" viewBox="0 0 127.5 40.7">
  <!-- Generator: Adobe Illustrator 29.5.1, SVG Export Plug-In . SVG Version: 2.1.0 Build 141)  -->
  <defs>
    <style>
      .st0 {
        fill: #dfba6d;
      }

      .st1 {
        fill: #fab31d;
      }

      .st2 {
        display: none;
      }

      .st3 {
        font-family: LexendZetta-Medium, 'Lexend Zetta';
        font-size: 4px;
        font-weight: 500;
      }

      .st4 {
        font-family: LexendZetta-Regular, 'Lexend Zetta';
        font-size: 12px;
      }
    </style>
  </defs>
  <g class="st2">
    <g>
      <path d="M40.4,34.4c0,.2,0,.4-.2.6s-.2.2-.5.3h-.7c-.2,0-.6,0-.8-.2-.2,0-.4-.2-.6-.4s-.2-.4-.2-.7,0-.5.2-.7.3-.3.6-.4c.2,0,.5-.2.8-.2h.7c.2,0,.4.2.5.3s.2.3.2.6h-.6c0-.2-.2-.3-.3-.4-.2,0-.3-.2-.6-.2h-.5c-.2,0-.2.2-.3.2,0,0-.2.2-.2.4s0,.3.2.4c0,0,.2.2.3.2h.5c.2,0,.4,0,.6-.2.2,0,.2-.2.3-.4h.6v.8Z"/>
      <path d="M41.2,35.3v-3.3h.6v3.3h-.6ZM43.4,35.3v-1.6s0-.2-.2-.2h-.8c-.2,0-.2.2-.3.2s-.2.2-.2.3v-.5s.2-.2.2-.3c0,0,.2-.2.3-.2h.9q.2,0,.3.2s.2.2.2.3v1.9h-.6v-.2h.2Z"/>
      <path d="M46.3,35.4c-.3,0-.6,0-.8-.2-.2,0-.4-.2-.6-.4s-.2-.4-.2-.6,0-.5.2-.7.3-.3.6-.4c.3-.1.5-.2.8-.2s.6,0,.8.2c.2,0,.4.2.6.4s.2.4.2.7,0,.5-.2.6-.3.3-.6.4-.5.2-.8.2ZM46.3,34.9h.5c.2,0,.2-.2.3-.2v-.8s-.2-.2-.3-.2h-1c-.2,0-.2.2-.3.2v.8s.2.2.3.2h.5Z"/>
      <path d="M50,35.4c-.3,0-.6,0-.8-.2-.2,0-.4-.2-.6-.4s-.2-.4-.2-.6,0-.5.2-.7.3-.3.6-.4c.2,0,.5-.2.8-.2s.6,0,.8.2c.2,0,.4.2.6.4s.2.4.2.7,0,.5-.2.6-.3.3-.6.4c-.2,0-.5.2-.8.2ZM50,34.9h.5c.2,0,.2-.2.3-.2v-.8s-.2-.2-.3-.2h-1c-.2,0-.2.2-.3.2v.8s.2.2.3.2h.5Z"/>
      <path d="M52.2,34.6h.6s0,.2.2.2h.9v-.3h-.9q-.2,0-.3-.2s-.2,0-.2-.2v-.6l.2-.2s.2,0,.3-.2.3,0,.4,0h.6c.2,0,.2.2.3.3v.4h-.6s0-.2-.2-.2h-.6v.4h.9s.2,0,.3.2c0,0,.2,0,.2.2v.3c0,.2,0,.3-.2.4s-.2.2-.4.2h-1.2q-.2,0-.4-.2l-.2-.2v-.4h.3Z"/>
      <path d="M57.5,34.6h.6c0,.2,0,.3-.2.4,0,.2-.2.2-.5.3h-.7c-.3,0-.6,0-.8-.2s-.4-.2-.6-.4-.2-.4-.2-.6,0-.5.2-.6.3-.3.6-.4.5-.2.8-.2.6,0,.8.2c.2,0,.4.2.5.5s.2.5.2.8h-2.2q0,.2.2.3s.2.2.3.2h1c.1,0,.2-.2.2-.2v-.2h-.2ZM56.7,33.4c-.2,0-.4,0-.6.2-.2,0-.2.2-.2.4h1.6c0-.2,0-.3-.2-.4-.2,0-.3-.2-.6-.2Z"/>
      <path d="M60.2,33h.6l1,2.3h-.6l-1.1-2.3h0ZM63.1,33l-1.7,3.3h-.6l.7-1.3.9-2h.7Z"/>
      <path d="M65.1,35.4c-.3,0-.6,0-.8-.2-.2,0-.4-.2-.6-.4s-.2-.4-.2-.6,0-.5.2-.7.3-.3.6-.4.5-.2.8-.2.6,0,.8.2c.2,0,.4.2.6.4s.2.4.2.7,0,.5-.2.6-.3.3-.6.4-.5.2-.8.2ZM65.1,34.9h.5c.2,0,.2-.2.3-.2v-.8s-.2-.2-.3-.2h-1c-.2,0-.2.2-.3.2v.8s.2.2.3.2h.5Z"/>
      <path d="M69.6,34.2v.5l-.2.2s-.2.2-.3.2h-.8q-.2,0-.3-.2s-.2-.2-.2-.3v-1.9h.6v1.7l.2.2h.8c.2,0,.2-.2.3-.2,0,0,.2-.2.2-.3h-.3ZM70.1,35.3h-.6v-2.4h.6v2.4Z"/>
      <path d="M71.1,33h.6v2.4h-.6v-2.4ZM72.6,33.5h-.5c-.2,0-.2.2-.3.2,0,0-.2.2-.2.3v-.6s0-.2.2-.2l.2-.2h.4v.6-.2h.2Z"/>
      <path d="M76.2,35.4c-.3,0-.6,0-.8-.2-.2,0-.4-.2-.6-.4s-.2-.4-.2-.6,0-.5.2-.7.3-.3.6-.4.5-.2.8-.2.6,0,.8.2.4.2.6.4.2.4.2.7,0,.5-.2.6-.3.3-.6.4-.5.2-.8.2ZM76.2,34.9h.5c.2,0,.2-.2.3-.2s0-.2,0-.4v-.4s-.2-.2-.3-.2h-1c-.2,0-.2.2-.3.2v.8c0,.1.2.2.3.2h.5Z"/>
      <path d="M80.6,34.2v.5l-.2.2s-.2.2-.3.2h-.8q-.2,0-.3-.2s-.2-.2-.2-.3v-1.9h.6v1.7l.2.2h.8c.2,0,.2-.2.3-.2,0,0,.2-.2.2-.3h-.3ZM81.2,35.3h-.6v-2.4h.6v2.4Z"/>
      <path d="M82,33h1.8v.5h-1.8v-.5ZM82.6,32.3h.6v3h-.6v-3Z"/>
      <path d="M84.4,33.1h1.9v.5h-1.9v-.5ZM85.9,32h1.6v.5h-1.7l-.2.2v.2h-.6v-.6c0-.2.2-.2.3-.2h.6ZM84.9,35.3v-2.5h.6v2.5h-.6ZM86.1,33.6v-.5h1.2v.5h-1.2ZM86.7,33.1h.6v2.2h-.6v-2.2Z"/>
      <path d="M88.2,33h1.8v.5h-1.8v-.5ZM88.7,32.3h.6v3h-.6v-3Z"/>
    </g>
    <g>
      <g>
        <path class="st1" d="M44.9,4.4l-5.9,2v13l5.9-3.2V4.4ZM58.6,6.4l-5.9-2v11.6l5.9,3.2V6.4ZM58.6,28.8v-6.6l-9.8-4.3-9.7,4.3v6.6h5.9v-5.1l4-1.3,3.9,1.3v5.1h5.9-.2Z"/>
        <polygon class="st1" points="58.6 28.8 52.8 28.8 52.8 23.7 48.9 22.4 44.9 23.7 44.9 28.8 39.1 28.8 39.1 22.2 48.8 17.9 58.6 22.2 58.6 28.8"/>
        <polygon class="st1" points="44.9 4.4 44.9 16.1 39.1 19.4 39.1 6.4 44.9 4.4"/>
        <polygon class="st1" points="58.6 6.4 58.6 19.4 52.8 16.1 52.8 4.4 58.6 6.4"/>
      </g>
      <g>
        <path d="M64.8,25v-.6c0-.7-.5-1.7.2-2.3.3-.3.8-.3,1.2-.6.5-.3.8-1,.6-1.6-.2-.2-.6,0-.8,0-1.8.7-3.6,1.6-5.4,2.4-.3.2-.7.4-.7.8s.5.5.8.5c.6,0,1.1-.4,1.6-.7.2,0,1.3-.5,1.3,0,0,0,.2,5.7.2,5.8,0,.3.8-.3.9-.5v-.5c0-.9.2-1.8.2-2.8h-.1Z"/>
        <path d="M64.6,17.9c.2-.2.2-.3.4-.5.7-.9.2-2.2-1-2.5-1-.2-3.2.2-4,.9-.3.3-.2.2-.3.7,0,.5,0,1.2,0,1.2h.5c0,.4-.2.9-.2,1.3s0,1.1.6,1.3,1-.2,1.4-.4c1-.6,2-1.3,2.7-2.1h-.1ZM61.9,18.3c-.2-.2,0-1,.2-1.2s1.2-.6,1.3-.2c.2.6-.8,1.9-1.5,1.4Z"/>
        <path d="M78.1,27.3v-.4c0-.4-.2-1.3-.7-.9-.4.3-.6.8-.9,1.3s-.8.8-1.3.7c-.3,0-.6-.4-.8-.6-.5-.6-.9-1.1-1.3-1.7,0,0,0-.2-.2-.2-.2-.7.8-1.5,1-2.1.4-.7.6-1.7.4-2.5s-1.3-1.6-2.3-1.4-1.4,1.1-2.4.6-1.3-.9-1.4.2c-.2,1.2,0,2.5,0,3.7s-.2,2.8-.3,4.2v.5c.2.5,1,0,1.3-.2.4-.6-.2-1,0-1.6.2-1.1.5-2.1.5-3.2s.6-2.1,1.5-2.6c.7-.4,1.9-.5,2.1.6s-.5,2.1-1.3,2.7c-.5.3-1.4.4-1.7.9s.2.9.8,1c1.1.2,1.3.7,1.8,1.6.4.6,1.1,1.1,1.8,1.3s2.1,0,2.7-.8c.2-.2.3-.4.5-.6l.2-.2v-.3Z"/>
        <path d="M84.6,27.6c.2-.2.3-.5.5-.7.7-1.8-.6-4-2.5-4.3-1.7-.2-3.1,1-3.6,2.6s-.2,1.7.3,2.5c1.1,1.9,4,1.5,5.2,0v-.2h0ZM83,27.4c-.7.5-1.7.5-2.3-.3-.5-.6-.6-2.1,0-2.7.2-.2.9-.9,1.3-.7,0,.6.6.7,1.2.9.9.3,1.1,1.1.8,1.9s-.5.7-.8.9c0,0-.2,0-.2,0Z"/>
      </g>
      <polygon class="st1" points="88 26 86.1 23.8 87 23.1 86.6 22.1 85.8 21.7 84.9 22.4 83 20.2 85.2 20.4 86.7 20.5 88.4 20.6 88.3 22.4 88.2 23.9 88 26"/>
    </g>
  </g>
  <g>
    <g>
      <path d="M61.4-16.1c0,.4,0,.7-.4.9s-.5.4-.7.5c-.4,0-.7.2-1.3.2s-.9,0-1.3-.2-.7-.4-.9-.7-.4-.7-.4-1.1,0-.9.4-1.1c.2-.4.5-.5.9-.7s.7-.2,1.3-.2.9,0,1.3.2c.4,0,.5.4.7.5.2.2.4.5.4.9h-.9c0-.2-.2-.5-.5-.5s-.5-.2-.9-.2h-.7c-.2,0-.4.2-.5.4s-.2.4-.2.7,0,.5.2.7c0,.2.4.4.5.4h.7c.2,0,.7,0,.9-.2.2,0,.4-.4.5-.5,0,0,.9,0,.9,0Z"/>
      <path d="M62.8-14.5v-5.4h1.1v5.4h-1.1ZM66.2-14.5v-2.7s-.2-.2-.4-.4h-1.4c-.2,0-.4.2-.5.4s-.2.4-.2.5v-.9s.2-.4.4-.5c0,0,.4-.2.5-.4h1.4c.2,0,.4,0,.5.4,0,0,.2.4.4.5v3.2h-1.1l.4-.2Z"/>
      <path d="M71-14.5c-.5,0-.9,0-1.3-.2s-.7-.4-.9-.7-.4-.7-.4-1.1,0-.7.4-1.1c.2-.4.5-.5.9-.7s.7-.2,1.3-.2.9,0,1.3.2c.4,0,.7.4.9.7s.4.7.4,1.1,0,.7-.4,1.1c-.2.4-.5.5-.9.7-.4,0-.7.2-1.3.2ZM71-15.3h.7c.2,0,.4-.2.5-.4s.2-.4.2-.7,0-.5-.2-.7c0-.2-.4-.4-.5-.4h-1.4c-.2,0-.4.2-.5.4,0,.2-.2.4-.2.7s0,.5.2.7c0,.2.4.4.5.4h.7Z"/>
      <path d="M77.1-14.5c-.5,0-.9,0-1.3-.2s-.7-.4-.9-.7-.4-.7-.4-1.1,0-.7.4-1.1c.2-.4.5-.5.9-.7s.7-.2,1.3-.2.9,0,1.3.2c.4,0,.7.4.9.7s.4.7.4,1.1,0,.7-.4,1.1c-.2.4-.5.5-.9.7-.4,0-.7.2-1.3.2ZM77.1-15.3h.7c.2,0,.4-.2.5-.4s.2-.4.2-.7,0-.5-.2-.7c0-.2-.4-.4-.5-.4h-1.4c-.2,0-.4.2-.5.4,0,.2-.2.4-.2.7s0,.5.2.7c0,.2.4.4.5.4h.7Z"/>
      <path d="M80.6-15.8h.9s0,.4.4.4h1.4v-.4h-1.6c-.2,0-.4,0-.5-.2,0,0-.4-.2-.4-.4v-1.1s.2-.2.4-.4c0,0,.4,0,.5-.2h1.6c.2,0,.4.2.5.5,0,.2.2.4.2.7h-.9c0-.2,0-.4-.2-.4h-1.1c-.2,0-.2.2-.2.4s0,.2,0,.2h1.4c.2,0,.4,0,.5.2s.2.2.4.4v.5c0,.2,0,.5-.2.7,0,0-.4.4-.5.4h-1.8q-.4,0-.5-.4s-.4-.2-.4-.4v-.7Z"/>
      <path d="M89.2-15.8h.9c0,.2,0,.5-.4.7-.2.2-.4.4-.7.5h-1.1c-.4,0-.9,0-1.3-.2-.4,0-.7-.4-.9-.7s-.4-.7-.4-1.1,0-.7.4-1.1c.2-.4.5-.5.9-.7.4,0,.7-.2,1.3-.2s.9,0,1.3.2c.4,0,.5.4.7.7s.2.7.2,1.3h-3.8c0,.2,0,.4.2.5,0,0,.4.4.5.4h1.4c.2,0,.4-.2.4-.4h.4ZM88-17.8c-.4,0-.7,0-.9.2-.2,0-.4.4-.5.5h2.7c0-.2,0-.5-.4-.5s-.5-.2-.9-.2Z"/>
      <path d="M93.7-18.5h1.1l1.6,3.8h-.9s-1.8-3.8-1.8-3.8ZM98.5-18.5l-2.7,5.4h-1.1l1.1-2.1,1.4-3.2h1.3Z"/>
      <path d="M101.7-14.5c-.5,0-.9,0-1.3-.2s-.7-.4-.9-.7-.4-.7-.4-1.1,0-.7.4-1.1c.2-.4.5-.5.9-.7s.7-.2,1.3-.2.9,0,1.3.2c.4,0,.7.4.9.7s.4.7.4,1.1,0,.7-.4,1.1c-.2.4-.5.5-.9.7-.4,0-.7.2-1.3.2ZM101.7-15.3h.7c.2,0,.4-.2.5-.4s.2-.4.2-.7,0-.5-.2-.7c0-.2-.4-.4-.5-.4h-1.4c-.2,0-.4.2-.5.4,0,.2-.2.4-.2.7s0,.5.2.7c0,.2.4.4.5.4h.7Z"/>
      <path d="M109.1-16.5h0v.5s0,.4-.2.4c0,0-.2.4-.4.4s-.4.2-.5.4-.4,0-.7,0h-.7c-.2,0-.4,0-.5-.2,0,0-.4-.4-.4-.5v-3h1.1v2.7l.4.4h.5c.2,0,.5,0,.7-.2s.4-.4.5-.5c0,0,.2-.4.2-.5v.4ZM110-14.5h-1.1v-3.9h1.1v3.9Z"/>
      <path d="M111.4-18.5h1.1v3.9h-1.1s0-3.9,0-3.9ZM113.9-17.6h-.7c-.2,0-.4.2-.5.4,0,0-.2.4-.4.5v-1.1s0-.4.4-.4c0,0,.2-.2.4-.4h.5v.9h.4Z"/>
      <path d="M120-14.5c-.5,0-.9,0-1.3-.2s-.7-.4-.9-.7-.4-.7-.4-1.1,0-.7.4-1.1c.2-.4.5-.5.9-.7s.7-.2,1.3-.2.9,0,1.3.2c.4.2.7.4.9.7s.4.7.4,1.1,0,.7-.4,1.1c-.2.4-.5.5-.9.7s-.7.2-1.3.2ZM120-15.3h.7c.2,0,.4-.2.5-.4s.2-.4.2-.7,0-.5-.2-.7c0-.2-.4-.4-.5-.4h-1.4c-.2,0-.4.2-.5.4,0,.2-.2.4-.2.7s0,.5.2.7c0,.2.4.4.5.4h.7Z"/>
      <path d="M127.1-16.5h0v.5c0,.2,0,.4-.2.4,0,0-.2.4-.4.4s-.4.2-.5.4-.4,0-.7,0h-.5c-.2,0-.4,0-.5-.2s-.4-.4-.4-.5v-3h1.1v2.7l.4.4h.5c.2,0,.5,0,.7-.2.2,0,.4-.4.5-.5,0,0,.2-.4.2-.5l-.2.4ZM128.2-14.5h-1.1v-3.9h1.1v3.9Z"/>
      <path d="M129.2-18.5h3v.7h-3v-.7ZM130.3-19.5h1.1v5h-1.1v-5Z"/>
      <path d="M133.4-18.3h3v.7h-3v-.7ZM135.7-20.1h2.5v.9h-2.7s-.2,0-.2.2v.4h-1.1v-.9c0-.2.4-.4.5-.4h.9v-.2ZM134.1-14.5v-4.1h1.1v4.1h-1.1ZM136-17.6v-.7h2v.7h-2ZM137.1-18.3h1.1v3.8h-1.1s0-3.8,0-3.8Z"/>
      <path d="M139.4-18.5h3v.7h-3v-.7ZM140.3-19.5h1.1v5h-1.1v-5Z"/>
    </g>
    <g>
      <g>
        <path class="st1" d="M11.6.6L1.9,3.8v21.3l9.6-5.4V.6ZM33.9,3.6L24.3.4v19.1l9.6,5.4V3.6ZM33.9,40.4v-10.9l-16.1-7L1.9,29.5v10.9h9.6v-8.2l6.4-2.1,6.3,2.1v8.2h9.6Z"/>
        <polygon class="st1" points="33.9 40.4 24.5 40.4 24.5 32 18 29.9 11.6 32 11.6 40.4 1.9 40.4 1.9 29.5 17.8 22.6 33.9 29.5 33.9 40.4"/>
        <polygon class="st1" points="11.6 .6 11.6 19.5 1.9 24.9 1.9 3.6 11.6 .6"/>
        <polygon class="st1" points="33.9 3.6 33.9 24.9 24.5 19.5 24.5 .6 33.9 3.6"/>
      </g>
      <g>
        <path d="M43.9,34.2v-1.1c0-1.1-.7-2.9.2-3.8s1.4-.5,2-.9c.9-.5,1.4-1.6.9-2.5-.2-.4-.9,0-1.3,0-3,1.1-5.9,2.7-8.8,3.9-.5.2-1.3.5-1.1,1.3s.7.7,1.3.7c1.1,0,1.8-.5,2.7-1.1.4,0,2-.7,2,0,0,0,.4,9.3.4,9.5,0,.5,1.3-.5,1.4-.7v-.7c.2-1.4.2-3,.2-4.5l.2-.2Z"/>
        <path d="M43.9,22.6c.2-.2.4-.5.5-.7,1.1-1.6.4-3.6-1.6-4.1-1.6-.4-5.2.4-6.4,1.6s-.4.4-.5,1.1,0,2,0,2c0,0,.9,0,.7,0,0,.7-.4,1.4-.4,2.1s0,1.8.9,2.1,1.6-.2,2.3-.7c1.6-.9,3.2-2.1,4.5-3.6v.2ZM39.5,23.3c-.2-.4,0-1.6.4-2,.2-.2,2-.9,2.1-.4.4.9-1.3,3.2-2.5,2.3Z"/>
        <path d="M65.9,37.9c0-.2,0-.4.2-.5,0-.7-.2-2.1-1.1-1.4-.7.5-1.1,1.4-1.6,2.1s-1.3,1.4-2.1,1.1c-.5,0-.9-.5-1.3-1.1-.7-.9-1.4-1.8-2.1-2.9,0,0-.2-.2-.2-.4-.4-1.1,1.3-2.3,1.8-3.4.5-1.3,1.1-2.7.7-4.1s-2.1-2.7-3.8-2.3c-1.6.4-2.3,1.8-3.9.9s-2-1.4-2.3.4c-.4,2,0,4.1,0,6.1s-.2,4.6-.5,6.8v.7c.4.7,1.6,0,2-.4.5-.9-.2-1.6,0-2.7.4-1.8.7-3.4.7-5.2s.9-3.4,2.5-4.3,3-.7,3.4.9-.7,3.6-2,4.3c-.7.5-2.3.5-2.7,1.4s.4,1.4,1.3,1.6c1.8.4,2.1,1.3,3,2.7.7,1.1,1.8,1.8,2.9,2s3.2-.2,4.5-1.3c.4-.4.5-.7.7-1.1Z"/>
        <path d="M76.6,38.3c.4-.4.5-.7.7-1.3,1.3-2.9-.9-6.6-3.9-7-2.9-.4-5,1.6-5.7,4.3-.7,2.7-.2,2.9.5,4.1,1.8,3,6.4,2.5,8.6,0l-.2-.2ZM73.8,38.1c-1.3.7-2.9.7-3.8-.5-.7-1.1-.9-3.4,0-4.5.4-.4,1.6-1.6,2.1-1.1,0,1.1,1.1,1.1,2,1.4,1.4.5,1.8,1.8,1.3,3.2-.2.5-.7,1.1-1.3,1.4h-.4Z"/>
      </g>
      <polygon class="st1" points="82 35.8 78.9 32.2 80.4 31 79.8 29.5 78.4 28.6 77 29.9 73.8 26.3 77.5 26.5 80 26.8 82.7 27 82.5 30.1 82.3 32.2 82 35.8"/>
    </g>
  </g>
  <g>
    <polygon class="st0" points="-34.6 -80.6 -34.6 -61.1 -44.2 -55.8 -44.2 -77.2 -34.6 -80.6"/>
    <polygon class="st0" points="-21.4 -80.6 -21.4 -61.1 -11.8 -55.8 -11.8 -77.2 -21.4 -80.6"/>
    <polygon class="st0" points="-11.8 -51.1 -11.8 -40 -21.4 -40 -21.4 -48.5 -28 -50.8 -34.6 -48.5 -34.6 -40 -44.2 -40 -44.2 -51.1 -34.6 -55.4 -28 -58.3 -21.4 -55.4 -11.8 -51.1"/>
  </g>
  <g>
    <path d="M-.1-63h-5.2v4.7h-2.4v-11.1h2.4v4.3H-.1v-4.3h2.4v11.1H-.1s0-4.7,0-4.7Z"/>
    <path d="M22.2-58.3h-8.9v-11.1h8.9v2.1h-6.4v2.5h5.7v1.9h-5.7v2.5h6.4s0,2.1,0,2.1Z"/>
    <path d="M35.2-61.7v3.4h-2.4v-11.1c1.2-.2,2.4-.3,4-.3s4.2.5,5.7,1.4v5.5c-.7.4-1.4.7-2.1.9l2.3,3.7h-2.7l-2-3.3c-.2,0-.4,0-.6,0-.8,0-1.4,0-2.1,0h0ZM35.2-63.7c.6,0,1.2,0,2,0s.2,0,.4,0c1,0,1.8-.2,2.5-.6v-2.6c-.7-.4-1.5-.6-2.5-.7h-.4c-.8,0-1.4,0-2,0v3.8Z"/>
    <path d="M58.3-58c-1.7,0-3.4-.4-5.1-1.4v-8.9c1.7-1,3.4-1.4,5.1-1.4s3.4.4,5.1,1.4v8.9c-1.7,1-3.4,1.4-5.1,1.4ZM60.9-60.9v-6c-.8-.4-1.7-.6-2.6-.6s-1.8.2-2.6.6v6c.8.5,1.7.6,2.6.6s1.8-.2,2.6-.6Z"/>
  </g>
  <g>
    <path d="M-7.2-49.3v-.4h1.2c.2,0,.3,0,.3-.1s.1-.2.1-.3,0-.3-.1-.3-.2-.1-.3-.1h-1.2v2.2h-.5v-2.7h1.7c.2,0,.3,0,.4,0,.1,0,.2,0,.3.2,0,0,.2.2.2.3,0,.1,0,.3,0,.4s0,.3,0,.4-.1.2-.2.3c0,0-.2.1-.3.1-.1,0-.3,0-.4,0h-1.2Z"/>
    <path d="M-2.3-48.4v-2.7H-.5c.2,0,.4,0,.5,0s.3.1.4.3.1.3.1.5,0,.2,0,.3c0,0-.1.2-.2.2s-.2.1-.3.1c0,0-.2,0-.3,0h0c.2,0,.3,0,.5,0s.2,0,.3.2c0,0,0,.2,0,.3v.6H-.1v-.6c0-.1,0-.2,0-.2,0,0,0-.1-.2-.1s-.2,0-.4,0h-1v1h-.6ZM-1.8-49.8H-.5c.2,0,.3,0,.4-.1,0,0,.1-.2.1-.3s0-.2-.1-.3c0,0-.2-.1-.4-.1h-1.3v.8Z"/>
    <path d="M3.2-51.1h.5v2.7h-.5s0-2.7,0-2.7Z"/>
    <path d="M9.3-48.9h-.2c0,0,0-2.1,0-2.1h.5v2.7h-.5l-2.2-2.1h.2c0,0,0,2.1,0,2.1h-.5v-2.7h.5s2.2,2.1,2.2,2.1Z"/>
    <path d="M12.2-51.1h2.8v.5h-2.8s0-.5,0-.5ZM13.3-50.7h.5v2.3h-.5s0-2.3,0-2.3Z"/>
    <path d="M17.6-51.1h.5v2.7h-.5s0-2.7,0-2.7Z"/>
    <path d="M23.6-48.9h-.2c0,0,0-2.1,0-2.1h.6v2.7h-.6l-2.2-2.1h.2c0,0,0,2.1,0,2.1h-.6v-2.7h.6s2.2,2.1,2.2,2.1Z"/>
    <path d="M28.3-48.3c-.2,0-.5,0-.7,0s-.4-.2-.5-.3c-.2-.1-.3-.3-.3-.4s-.1-.4-.1-.6,0-.4.1-.6c0-.2.2-.3.3-.5.2-.1.3-.2.5-.3.2,0,.4,0,.7,0s.6,0,.8.1c.2,0,.4.2.5.4.1.1.2.3.2.5h-.5c0-.1,0-.2-.2-.3,0,0-.2-.1-.3-.2-.1,0-.3,0-.5,0s-.4,0-.6.1c-.2,0-.3.2-.4.3s-.1.3-.1.5,0,.4.1.5.2.2.4.3.4.1.6.1.4,0,.5,0c.2,0,.3-.1.4-.2,0,0,.2-.2.2-.3h.2c0,.3-.2.6-.4.8-.2.2-.5.3-.9.3h0ZM29.5-48.4c0,0,0-.2,0-.3,0-.1,0-.2,0-.3s0-.2,0-.3h-1.2v-.4h1.6v1.3s-.5,0-.5,0Z"/>
    <path d="M36.2-50h2.3v.4h-.6v1.8h-.5v-.6h-1.8v-2.7h1.6v.5h-1s0,.6,0,.6ZM36.2-48.9h1.3v-.7h-1.3v.7Z"/>
    <path d="M47.3-49.4c0,.2,0,.4-.2.5-.1.1-.3.3-.5.4-.2,0-.5.1-.8.1s-.5,0-.7,0-.4-.2-.5-.3c-.2-.1-.3-.3-.3-.4s-.1-.4-.1-.6,0-.4.1-.6.2-.3.3-.4.3-.2.5-.3c.2,0,.4,0,.7,0s.6,0,.8.1.4.2.5.4.2.3.2.6h-.6c0-.1,0-.2-.2-.3s-.2-.1-.3-.2c-.1,0-.3,0-.5,0s-.4,0-.6.1-.3.2-.4.3c0,.1-.1.3-.1.5s0,.4.1.5c0,.1.2.2.4.3s.4.1.6.1.3,0,.5,0c.1,0,.2-.1.3-.2s.2-.2.2-.3h.6Z"/>
    <path d="M49.9-48.4v-2.7h1.8c.2,0,.4,0,.5,0s.3.1.4.3c0,.1.1.3.1.5s0,.2,0,.3c0,0-.1.2-.2.2s-.2.1-.3.1c0,0-.2,0-.3,0h0c.2,0,.3,0,.5,0s.2,0,.3.2,0,.2,0,.3v.6h-.6v-.6c0-.1,0-.2,0-.2,0,0,0-.1-.2-.1,0,0-.2,0-.4,0h-1v1h-.6ZM50.4-49.8h1.3c.2,0,.3,0,.4-.1,0,0,.1-.2.1-.3s0-.2-.1-.3c0,0-.2-.1-.4-.1h-1.3v.8Z"/>
    <path d="M56-49.5v.7h2.1v.5h-2.6v-2.7h2.6v.5h-2.1v.7h1.7v.4h-1.7,0Z"/>
    <path d="M60.4-48.4l1.3-2.7h.6l1.3,2.7h-.6l-1.1-2.4h.3l-1.1,2.4h-.6ZM61.1-49v-.5h1.8v.5h-1.8Z"/>
    <path d="M65.5-51.1h2.8v.5h-2.8v-.5ZM66.6-50.7h.6v2.3h-.6s0-2.3,0-2.3Z"/>
    <path d="M70.9-51.1h.6v2.7h-.6s0-2.7,0-2.7Z"/>
    <path d="M76.9-48.9h-.2c0,0,0-2.1,0-2.1h.6v2.7h-.6l-2.2-2.1h.2c0,0,0,2.1,0,2.1h-.6v-2.7h.6s2.2,2.1,2.2,2.1Z"/>
    <path d="M81.6-48.3c-.2,0-.5,0-.7,0s-.4-.2-.5-.3c-.2-.1-.3-.3-.3-.4s-.1-.4-.1-.6,0-.4.1-.6c0-.2.2-.3.3-.5.2-.1.3-.2.5-.3.2,0,.4,0,.7,0s.6,0,.8.1c.2,0,.4.2.5.4.1.1.2.3.2.5h-.5c0-.1,0-.2-.2-.3,0,0-.2-.1-.3-.2-.1,0-.3,0-.5,0s-.4,0-.6.1c-.2,0-.3.2-.4.3s-.1.3-.1.5,0,.4.1.5.2.2.4.3.4.1.6.1.4,0,.5,0c.2,0,.3-.1.4-.2,0,0,.2-.2.2-.3h.2c0,.3-.2.6-.4.8-.2.2-.5.3-.9.3h0ZM82.8-48.4c0,0,0-.2,0-.3,0-.1,0-.2,0-.3s0-.2,0-.3h-1.2v-.4h1.6v1.3s-.5,0-.5,0Z"/>
    <path d="M-6.1-42.8c.3,0,.5,0,.8.1.2,0,.4.2.5.3.1.1.2.3.3.4s0,.3,0,.5,0,.3,0,.5-.2.3-.3.4-.3.2-.5.3-.5.1-.7.1h-1.5v-2.7h1.5ZM-7.1-40.6h1c.2,0,.4,0,.5,0s.2-.1.3-.2.1-.2.2-.3c0-.1,0-.2,0-.3s0-.2,0-.3,0-.2-.2-.3c0,0-.2-.1-.3-.2s-.3,0-.5,0h-1v1.7h0Z"/>
    <path d="M-1.9-42.8h.5v2.7h-.5v-2.7Z"/>
    <path d="M3-40c-.2,0-.5,0-.7,0s-.4-.2-.5-.3c-.2-.1-.3-.3-.3-.4s-.1-.4-.1-.6,0-.4.1-.6c0-.2.2-.3.3-.5.2-.1.3-.2.5-.3.2,0,.4,0,.7,0s.6,0,.8.1c.2,0,.4.2.5.4.1.2.2.3.2.5h-.5c0-.1,0-.2-.2-.3,0,0-.2-.2-.3-.2-.1,0-.3,0-.5,0s-.5,0-.6.1c-.2,0-.3.2-.4.3,0,.1-.1.3-.1.5s0,.3.1.5.2.2.4.3.4.1.6.1.4,0,.5,0c.2,0,.3-.1.4-.2s.2-.2.2-.3h.2c0,.3-.2.6-.4.8-.2.2-.5.3-.9.3h0ZM4.2-40.1c0,0,0-.2,0-.3,0-.1,0-.2,0-.3s0-.2,0-.3h-1.2v-.3h1.6v1.3s-.5,0-.5,0Z"/>
    <path d="M7.4-42.8h.5v2.7h-.5v-2.7Z"/>
    <path d="M10.5-42.8h2.8v.5h-2.8v-.5ZM11.7-42.4h.5v2.3h-.5v-2.3Z"/>
    <path d="M15.4-40.1l1.3-2.7h.6l1.3,2.7h-.6l-1.1-2.4h.3l-1.1,2.4h-.6ZM16.1-40.7v-.5h1.8v.5h-1.8Z"/>
    <path d="M21.6-42.8v2.2h1.8v.5h-2.3v-2.7s.6,0,.5,0Z"/>
    <path d="M29.5-41v-.4h1.2c.2,0,.3,0,.3-.1,0,0,.1-.2.1-.3s0-.3-.1-.3-.2-.1-.3-.1h-1.2v2.2h-.6v-2.7h1.7c.2,0,.3,0,.4,0,.1,0,.2,0,.3.2,0,0,.2.2.2.3,0,.1,0,.3,0,.4s0,.3,0,.4-.1.2-.2.3c0,0-.2.1-.3.2-.1,0-.3,0-.4,0h-1.2Z"/>
    <path d="M34.4-40.1v-2.7h1.8c.2,0,.4,0,.5,0s.3.2.4.3c0,.1.1.3.1.5s0,.2,0,.3c0,0-.1.2-.2.2s-.2,0-.3.1c0,0-.2,0-.3,0h0c.2,0,.3,0,.5,0s.2,0,.3.2c0,0,0,.2,0,.3v.6h-.6v-.6c0,0,0-.2,0-.2,0,0,0,0-.2-.1,0,0-.2,0-.4,0h-1v1h-.6ZM34.9-41.5h1.3c.2,0,.3,0,.4-.1,0,0,.1-.2.1-.3s0-.2-.1-.3c0,0-.2,0-.4,0h-1.3s0,.8,0,.8Z"/>
    <path d="M41.5-40c-.4,0-.7,0-.9-.2-.2-.1-.4-.3-.6-.5-.1-.2-.2-.5-.2-.8s0-.5.2-.8.3-.4.6-.5.6-.2.9-.2.7,0,.9.2c.2.1.4.3.6.5.1.2.2.5.2.8s0,.5-.2.8-.3.4-.6.5-.6.2-.9.2ZM41.5-40.5c.2,0,.4,0,.6,0,.2,0,.3-.2.4-.3s.1-.3.1-.5,0-.4-.1-.5-.2-.2-.4-.3c-.2,0-.4,0-.6,0s-.4,0-.6,0c-.2,0-.3.2-.4.3,0,.1-.2.3-.2.5s0,.4.2.5.2.2.4.3c.2,0,.4,0,.6,0Z"/>
    <path d="M47.4-42.8c.3,0,.6,0,.8.1.2,0,.4.2.5.3.1.1.2.3.3.4s0,.3,0,.5,0,.3,0,.5-.2.3-.3.4-.3.2-.5.3-.4.1-.7.1h-1.5v-2.7h1.5,0ZM46.4-40.6h1c.2,0,.4,0,.5,0s.2-.1.3-.2.1-.2.2-.3c0-.1,0-.2,0-.3s0-.2,0-.3c0,0,0-.2-.2-.3s-.2-.1-.3-.2-.3,0-.5,0h-1v1.7h0Z"/>
    <path d="M54-41.3v-1.5h.6v1.6c0,.2,0,.3,0,.5,0,.1-.1.2-.2.3,0,0-.2.2-.3.2-.1,0-.3,0-.4.1-.2,0-.3,0-.5,0s-.3,0-.5,0c-.2,0-.3,0-.4-.1-.1,0-.2-.1-.3-.2,0,0-.2-.2-.2-.3s0-.3,0-.5v-1.6h.6v1.5c0,.2,0,.4.1.5s.2.2.3.2.3,0,.5,0,.3,0,.5,0,.3-.1.3-.2c0-.1.1-.3.1-.5h0Z"/>
    <path d="M60.4-41.1c0,.2,0,.4-.2.5-.1.2-.3.3-.5.3-.2,0-.5.1-.8.1s-.5,0-.7,0-.4-.2-.5-.3c-.2-.1-.3-.3-.3-.4,0-.2-.1-.4-.1-.6s0-.4.1-.6c0-.2.2-.3.3-.4s.3-.2.5-.3.4,0,.7,0,.6,0,.8.1.4.2.5.4.2.3.2.6h-.6c0-.1,0-.2-.2-.3,0,0-.2-.2-.3-.2-.1,0-.3,0-.5,0s-.4,0-.6.1-.3.2-.4.3c0,.1-.1.3-.1.5s0,.4.1.5c0,.1.2.2.4.3s.4.1.6.1.3,0,.5,0c.1,0,.2-.1.3-.2,0,0,.2-.2.2-.3h.6Z"/>
    <path d="M62.7-42.8h2.8v.5h-2.8v-.5ZM63.9-42.4h.6v2.3h-.6v-2.3Z"/>
  </g>
  <text class="st3" transform="translate(36 14.1)"><tspan x="0" y="0">CHOOSE YOUR OUTFIT</tspan></text>
  <text class="st4" transform="translate(74.6 -45.7)"><tspan x="0" y="0">H I RO</tspan></text>
</svg>