<?xml version="1.0" encoding="UTF-8"?>
<svg width="127.45" height="40.73" id="Layer_1" data-name="Layer 1" xmlns="http://www.w3.org/2000/svg" viewBox="0 0 127.45 40.73">
  <defs>
    <style>
      .cls-1 {
        fill: #dfba6d;
      }
    </style>
  </defs>
  <g>
    <polygon class="cls-1" points="9.64 .21 9.64 19.67 0 24.97 0 3.55 9.64 .21"/>
    <polygon class="cls-1" points="22.81 .21 22.81 19.67 32.44 24.97 32.44 3.55 22.81 .21"/>
    <polygon class="cls-1" points="32.44 29.65 32.44 40.73 22.81 40.73 22.81 32.27 16.22 29.99 9.64 32.27 9.64 40.73 0 40.73 0 29.65 9.64 25.38 16.22 22.45 22.81 25.38 32.44 29.65"/>
  </g>
  <g>
    <path d="M44.06,17.76h-5.17v4.69h-2.44v-11.15h2.44v4.33h5.17v-4.33h2.44v11.15h-2.44v-4.69Z"/>
    <path d="M66.45,22.45h-8.88v-11.15h8.88v2.09h-6.44v2.5h5.69v1.94h-5.69v2.53h6.44v2.09Z"/>
    <path d="M79.43,19.09v3.35h-2.44v-11.15c1.21-.16,2.44-.27,4-.27,2.12,0,4.16.46,5.71,1.39v5.49c-.68.41-1.37.7-2.12.86l2.32,3.67h-2.71l-2.03-3.32c-.21.04-.43.04-.64.04-.75,0-1.43-.02-2.07-.07ZM79.43,17.11c.59.05,1.25.09,2.02.09.11,0,.23,0,.36-.02.98-.02,1.77-.23,2.5-.64v-2.64c-.73-.41-1.52-.62-2.5-.66h-.36c-.77,0-1.45.04-2.02.07v3.8Z"/>
    <path d="M102.5,22.72c-1.71,0-3.43-.41-5.08-1.39v-8.9c1.66-.98,3.37-1.39,5.08-1.39s3.41.41,5.07,1.39v8.9c-1.66.98-3.37,1.39-5.07,1.39ZM105.12,19.88v-6.01c-.82-.45-1.69-.62-2.62-.62s-1.82.18-2.64.62v6.01c.82.45,1.69.62,2.64.62s1.8-.18,2.62-.62Z"/>
  </g>
  <g>
    <path d="M37,31.49v-.44h1.23c.15,0,.26-.04.35-.12.09-.08.13-.19.13-.33s-.04-.26-.13-.34-.2-.12-.35-.12h-1.16v2.22h-.55v-2.69h1.67c.15,0,.29.02.42.05.13.04.25.09.35.17.1.07.18.17.23.29.06.12.08.26.08.42s-.03.3-.08.41-.13.21-.23.28c-.1.07-.21.12-.35.15-.13.03-.27.05-.42.05h-1.18Z"/>
    <path d="M41.86,32.37v-2.69h1.82c.21,0,.39.03.54.09s.27.15.36.27c.09.12.13.28.13.46,0,.13-.02.24-.07.32-.04.09-.11.16-.18.22s-.17.1-.27.13c-.1.03-.21.05-.33.06l-.06-.03c.19,0,.35.02.48.05s.22.08.28.16c.06.08.09.19.09.34v.64h-.55v-.6c0-.1-.02-.18-.05-.24-.04-.06-.1-.1-.19-.12-.09-.02-.23-.03-.4-.03h-1.04v.99h-.55ZM42.42,30.94h1.27c.16,0,.27-.04.36-.11.08-.07.12-.18.12-.3s-.04-.21-.12-.28c-.08-.06-.2-.1-.36-.1h-1.27v.79Z"/>
    <path d="M47.45,29.68h.55v2.69h-.55v-2.69Z"/>
    <path d="M53.53,31.82l-.17.07v-2.21h.55v2.69h-.55l-2.17-2.12.17-.07v2.19h-.55v-2.69h.55l2.17,2.14Z"/>
    <path d="M56.38,29.68h2.83v.46h-2.83v-.46ZM57.53,30.08h.55v2.29h-.55v-2.29Z"/>
    <path d="M61.78,29.68h.55v2.69h-.55v-2.69Z"/>
    <path d="M67.85,31.82l-.17.07v-2.21h.55v2.69h-.55l-2.17-2.12.17-.07v2.19h-.55v-2.69h.55l2.17,2.14Z"/>
    <path d="M72.49,32.42c-.25,0-.47-.03-.68-.09s-.37-.15-.52-.26c-.15-.12-.26-.26-.33-.43s-.12-.37-.12-.59.04-.43.12-.6c.08-.18.2-.32.35-.45.15-.12.33-.21.54-.28.21-.06.44-.09.7-.09.3,0,.56.04.78.13.22.08.39.2.52.36.13.15.2.33.21.54h-.53c-.04-.11-.09-.21-.18-.29-.08-.08-.19-.15-.32-.19-.13-.05-.29-.07-.48-.07-.24,0-.45.04-.62.12-.17.08-.3.19-.39.33-.09.14-.13.31-.13.5s.04.35.12.48.2.24.36.31c.16.07.37.11.62.11.19,0,.37-.03.51-.08.15-.05.27-.12.37-.21.1-.09.17-.19.21-.29l.22-.08c-.04.36-.17.64-.41.84-.23.2-.54.3-.93.3ZM73.69,32.37c0-.09,0-.18.02-.3.01-.11.02-.23.04-.34s.03-.22.05-.32h-1.23v-.35h1.6v1.31h-.48Z"/>
    <path d="M80.45,30.77h2.34v.44h-.57v1.77h-.51v-.61h-1.8v-2.69h1.58v.46h-1.04v.63ZM80.45,31.91h1.26v-.7h-1.26v.7Z"/>
    <path d="M91.48,31.4c-.02.22-.1.4-.23.55-.13.15-.3.27-.52.35-.22.08-.48.12-.78.12-.25,0-.48-.03-.69-.09-.21-.06-.39-.15-.54-.26-.15-.12-.27-.26-.35-.43-.08-.17-.12-.38-.12-.61s.04-.44.12-.61c.08-.17.2-.32.35-.44s.33-.21.54-.27c.21-.06.44-.09.69-.09.3,0,.56.04.78.12s.39.2.52.36.2.34.22.56h-.55c-.04-.12-.1-.22-.18-.3-.08-.08-.19-.15-.33-.19-.13-.04-.29-.07-.47-.07-.23,0-.43.04-.6.11-.17.07-.3.17-.4.31-.09.14-.14.31-.14.51s.05.37.14.5c.09.14.23.24.4.31.17.07.37.11.6.11.18,0,.34-.02.47-.07.13-.04.24-.11.32-.19.08-.08.15-.18.18-.29h.55Z"/>
    <path d="M94.1,32.37v-2.69h1.82c.21,0,.39.03.54.09s.27.15.36.27c.09.12.13.28.13.46,0,.13-.02.24-.07.32-.04.09-.11.16-.18.22s-.17.1-.27.13c-.1.03-.21.05-.33.06l-.06-.03c.19,0,.35.02.48.05s.22.08.28.16c.06.08.09.19.09.34v.64h-.55v-.6c0-.1-.02-.18-.05-.24-.04-.06-.1-.1-.19-.12-.09-.02-.23-.03-.4-.03h-1.04v.99h-.55ZM94.65,30.94h1.27c.16,0,.27-.04.36-.11.08-.07.12-.18.12-.3s-.04-.21-.12-.28c-.08-.06-.2-.1-.36-.1h-1.27v.79Z"/>
    <path d="M100.16,31.24v.66h2.07v.46h-2.63v-2.69h2.62v.46h-2.07v.67h1.7v.44h-1.7Z"/>
    <path d="M104.64,32.37l1.26-2.69h.6l1.28,2.69h-.6l-1.11-2.42h.27l-1.1,2.42h-.6ZM105.31,31.78v-.46h1.78v.46h-1.78Z"/>
    <path d="M109.67,29.68h2.83v.46h-2.83v-.46ZM110.81,30.08h.55v2.29h-.55v-2.29Z"/>
    <path d="M115.06,29.68h.55v2.69h-.55v-2.69Z"/>
    <path d="M121.13,31.82l-.17.07v-2.21h.55v2.69h-.55l-2.17-2.12.17-.07v2.19h-.55v-2.69h.55l2.17,2.14Z"/>
    <path d="M125.78,32.42c-.25,0-.47-.03-.68-.09s-.37-.15-.52-.26c-.15-.12-.26-.26-.33-.43s-.12-.37-.12-.59.04-.43.12-.6c.08-.18.2-.32.35-.45.15-.12.33-.21.54-.28.21-.06.44-.09.7-.09.3,0,.56.04.78.13.22.08.39.2.52.36.13.15.2.33.21.54h-.53c-.04-.11-.09-.21-.18-.29-.08-.08-.19-.15-.32-.19-.13-.05-.29-.07-.48-.07-.24,0-.45.04-.62.12-.17.08-.3.19-.39.33-.09.14-.13.31-.13.5s.04.35.12.48.2.24.36.31c.16.07.37.11.62.11.19,0,.37-.03.51-.08.15-.05.27-.12.37-.21.1-.09.17-.19.21-.29l.22-.08c-.04.36-.17.64-.41.84-.23.2-.54.3-.93.3ZM126.97,32.37c0-.09,0-.18.02-.3.01-.11.02-.23.04-.34s.03-.22.05-.32h-1.23v-.35h1.6v1.31h-.48Z"/>
    <path d="M38.06,37.99c.3,0,.55.04.76.11.2.07.36.17.48.29.12.12.21.27.26.43.05.16.08.33.08.51s-.03.35-.09.51-.15.31-.27.43-.29.23-.49.3-.45.11-.73.11h-1.54v-2.69h1.54ZM37.08,40.21h.97c.2,0,.37-.02.5-.07.13-.05.24-.11.31-.2s.13-.18.17-.28c.03-.11.05-.21.05-.33s-.02-.22-.05-.32c-.03-.1-.09-.19-.17-.27-.08-.08-.18-.14-.31-.19-.13-.05-.3-.07-.5-.07h-.97v1.74Z"/>
    <path d="M42.34,37.99h.55v2.69h-.55v-2.69Z"/>
    <path d="M47.23,40.73c-.25,0-.47-.03-.68-.09s-.37-.15-.52-.26c-.15-.12-.26-.26-.33-.43s-.12-.37-.12-.59.04-.43.12-.6c.08-.18.2-.32.35-.45.15-.12.33-.21.54-.28.21-.06.44-.09.7-.09.3,0,.56.04.78.13.22.08.39.2.52.36.13.15.2.33.21.54h-.53c-.04-.11-.09-.21-.18-.29-.08-.08-.19-.15-.32-.19-.13-.05-.29-.07-.48-.07-.24,0-.45.04-.62.12-.17.08-.3.19-.39.33-.09.14-.13.31-.13.5s.04.35.12.48.2.24.36.31c.16.07.37.11.62.11.19,0,.37-.03.51-.08.15-.05.27-.12.37-.21.1-.09.17-.19.21-.29l.22-.08c-.04.36-.17.64-.41.84-.23.2-.54.3-.93.3ZM48.42,40.68c0-.09,0-.18.02-.3.01-.11.02-.23.04-.34s.03-.22.05-.32h-1.23v-.35h1.6v1.31h-.48Z"/>
    <path d="M51.64,37.99h.55v2.69h-.55v-2.69Z"/>
    <path d="M54.75,37.99h2.83v.46h-2.83v-.46ZM55.89,38.39h.55v2.29h-.55v-2.29Z"/>
    <path d="M59.64,40.68l1.26-2.69h.6l1.28,2.69h-.6l-1.11-2.42h.27l-1.1,2.42h-.6ZM60.31,40.09v-.46h1.78v.46h-1.78Z"/>
    <path d="M65.8,37.99v2.23h1.79v.46h-2.34v-2.69h.55Z"/>
    <path d="M73.74,39.81v-.44h1.23c.15,0,.26-.04.35-.12.09-.08.13-.19.13-.33s-.04-.26-.13-.34-.2-.12-.35-.12h-1.16v2.22h-.55v-2.69h1.67c.15,0,.29.02.42.05.13.04.25.09.35.17.1.07.18.17.23.29.06.12.08.26.08.42s-.03.3-.08.41-.13.21-.23.28c-.1.07-.21.12-.35.15-.13.03-.27.05-.42.05h-1.18Z"/>
    <path d="M78.6,40.68v-2.69h1.82c.21,0,.39.03.54.09s.27.15.36.27c.09.12.13.28.13.46,0,.13-.02.24-.07.32-.04.09-.11.16-.18.22s-.17.1-.27.13c-.1.03-.21.05-.33.06l-.06-.03c.19,0,.35.02.48.05s.22.08.28.16c.06.08.09.19.09.34v.64h-.55v-.6c0-.1-.02-.18-.05-.24-.04-.06-.1-.1-.19-.12-.09-.02-.23-.03-.4-.03h-1.04v.99h-.55ZM79.15,39.25h1.27c.16,0,.27-.04.36-.11.08-.07.12-.18.12-.3s-.04-.21-.12-.28c-.08-.06-.2-.1-.36-.1h-1.27v.79Z"/>
    <path d="M85.71,40.73c-.36,0-.66-.06-.92-.17-.25-.11-.45-.27-.58-.48-.13-.21-.2-.46-.2-.75s.07-.54.2-.75c.13-.21.33-.37.58-.48.25-.11.56-.17.92-.17s.67.06.92.17c.25.11.45.27.58.48.13.21.2.46.2.75s-.07.54-.2.75c-.13.21-.33.37-.58.48-.25.11-.56.17-.92.17ZM85.71,40.26c.22,0,.42-.03.58-.1.17-.07.3-.17.39-.3s.14-.31.14-.52-.05-.38-.14-.52-.23-.24-.39-.31c-.17-.07-.36-.1-.58-.1s-.41.03-.59.1c-.17.07-.31.17-.4.31-.1.14-.15.31-.15.52s.05.38.15.52c.1.14.23.24.4.3.17.07.37.1.59.1Z"/>
    <path d="M91.57,37.99c.3,0,.55.04.76.11.2.07.36.17.48.29.12.12.21.27.26.43.05.16.08.33.08.51s-.03.35-.09.51-.15.31-.27.43-.29.23-.49.3-.45.11-.73.11h-1.54v-2.69h1.54ZM90.58,40.21h.97c.2,0,.37-.02.5-.07.13-.05.24-.11.31-.2s.13-.18.17-.28c.03-.11.05-.21.05-.33s-.02-.22-.05-.32c-.03-.1-.09-.19-.17-.27-.08-.08-.18-.14-.31-.19-.13-.05-.3-.07-.5-.07h-.97v1.74Z"/>
    <path d="M98.23,39.49v-1.5h.55v1.56c0,.18-.03.33-.08.47-.05.13-.12.25-.22.34-.09.09-.2.17-.33.22-.13.06-.26.1-.41.12-.15.03-.3.04-.47.04s-.33-.01-.48-.04c-.15-.03-.29-.07-.42-.12-.13-.06-.23-.13-.33-.22-.09-.09-.16-.2-.21-.34s-.08-.29-.08-.47v-1.56h.55v1.5c0,.21.04.37.12.48.08.11.2.18.34.22s.31.06.5.06.34-.02.48-.06.26-.12.34-.22c.08-.11.13-.27.13-.48Z"/>
    <path d="M104.64,39.71c-.02.22-.1.4-.23.55-.13.15-.3.27-.52.35-.22.08-.48.12-.78.12-.25,0-.48-.03-.69-.09-.21-.06-.39-.15-.54-.26-.15-.12-.27-.26-.35-.43-.08-.17-.12-.38-.12-.61s.04-.44.12-.61c.08-.17.2-.32.35-.44s.33-.21.54-.27c.21-.06.44-.09.69-.09.3,0,.56.04.78.12s.39.2.52.36.2.34.22.56h-.55c-.04-.12-.1-.22-.18-.3-.08-.08-.19-.15-.33-.19-.13-.04-.29-.07-.47-.07-.23,0-.43.04-.6.11-.17.07-.3.17-.4.31-.09.14-.14.31-.14.51s.05.37.14.5c.09.14.23.24.4.31.17.07.37.11.6.11.18,0,.34-.02.47-.07.13-.04.24-.11.32-.19.08-.08.15-.18.18-.29h.55Z"/>
    <path d="M106.94,37.99h2.83v.46h-2.83v-.46ZM108.08,38.39h.55v2.29h-.55v-2.29Z"/>
  </g>
</svg>
