<svg width="130" height="36" viewBox="0 0 130 36" fill="none" xmlns="http://www.w3.org/2000/svg">
  <polygon points="35.6 35 1.6 35 1.6 1 35.3 1 35.6 35" fill="#0041ff"/>
  <path d="M15.8,9.4v8.3l-4.1,2.2v-9.1l4.1-1.4ZM21.4,9.4v8.3l4.1,2.2v-9.1l-4.1-1.4ZM25.5,21.9v4.7h-4.1v-3.6l-2.8-1-2.8,1v3.6h-4.1v-4.7l4.1-1.8,2.8-1.3,2.8,1.3,4.1,1.8Z" fill="#000311"/>
  <path d="M61.3,12.9v-4.7h3.9v13.3h-3.9v-4.6h-19.3v4.6h-3.9v-13.3h3.9v4.7h19.3ZM66.8,8.4v-.9c0-.5.4-.9.9-.9h2.2c.5,0,.9.4.9.9v.9c0,.5-.4.9-.9.9h-2.2c-.5,0-.9-.4-.9-.9ZM66.8,21.5v-11.1h3.9v11.1h-3.9ZM99.5,21.5h-4.8l-2.6-3.8h-15.7v3.8h-3.9v-13.3h23.2c.6,0,1.1,0,1.6.3s.9.5,1.3.8.7.7.9,1.2c.2.5.3.9.3,1.4v1.9c0,.4,0,.8-.2,1.2s-.4.8-.7,1.1c-.3.3-.6.6-1,.9-.4.2-.7.4-1.1.5l2.8,4h-.1ZM95.7,12.9h0c0-.3,0-.4-.3-.6-.2-.1-.4-.2-.8-.2h-18.4v1.6h18.4c.3,0,.6,0,.8-.2.2-.1.3-.3.3-.6ZM124.3,21.5h-19.2c-.6,0-1.1-.1-1.6-.3-.5-.2-.9-.5-1.3-.9s-.7-.8-.9-1.3-.3-1-.3-1.6v-5.1c0-.6,0-1.1.3-1.6s.5-.9.9-1.3c.4-.4.8-.7,1.3-.9s1-.3,1.6-.3h19.2c.6,0,1.1.1,1.6.3s.9.5,1.3.9.7.8.9,1.3c.2.5.3,1,.3,1.6v5.1c0,.6-.1,1.1-.3,1.6s-.5.9-.9,1.3-.8.7-1.3.9c-.5.2-1,.3-1.6.3ZM124.5,16v-2.3c0-.4-.2-.8-.5-1.1s-.7-.5-1.1-.5h-16.4c-.4,0-.8.2-1.1.5-.3.3-.5.7-.5,1.1v2.3c0,.4.2.8.5,1.1s.7.5,1.1.5h16.4c.4,0,.8-.2,1.1-.5.3-.3.5-.7.5-1.1Z"/>
  <path d="M40.4,23.5l-.7,1.9h-1l1.1-1.9h.6ZM41.9,23.5l-.7,1.9h-1l1.1-1.9h.6ZM43.7,27.8h1c-.3.8-.8,1.4-1.8,1.4s-1.8-.7-1.5-1.9v-.6c.3-1.1,1.1-1.7,2.1-1.7s1.5.6,1.5,1.4h-.9c0-.4-.2-.6-.6-.6s-.8.3-.9,1v.5c-.2.7,0,1,.5,1s.6-.2.7-.5h0ZM45.3,29.1l1.1-5.8h1l-.5,2.6c.4-.5.8-.8,1.4-.8s1.2.6,1,1.4l-.5,2.6h-1l.5-2.4c0-.6,0-.8-.5-.8s-.9.4-1.1,1l-.4,2.2s-1,0-1,0ZM50.1,27.3v-.6c.4-1.1,1.1-1.6,2.1-1.6s1.8.8,1.6,1.9v.7c-.3,1-1.1,1.6-2.1,1.6s-1.8-.8-1.6-1.9h0ZM51.2,26.7v.6c-.2.6,0,1,.6,1s.9-.4,1-1v-.6c.2-.6,0-.9-.6-.9s-.8.3-1,.9ZM54.6,27.3v-.6c.4-1.1,1.1-1.6,2.1-1.6s1.8.8,1.6,1.9v.7c-.3,1-1.1,1.6-2.1,1.6s-1.8-.8-1.6-1.9h0ZM55.7,26.7v.6c-.2.6,0,1,.6,1s.9-.4,1-1v-.6c.2-.6,0-.9-.6-.9s-.8.3-1,.9ZM60.3,26.2c0,.3,0,.4.4.5h.5c.9.3,1.1.7,1,1.4,0,.8-.8,1.2-1.7,1.2s-1.7-.4-1.6-1.3h.9c0,.4.2.6.7.6s.7-.2.7-.4c0-.3,0-.4-.4-.5l-.6-.2c-.7-.2-1-.6-.9-1.2,0-.8.8-1.1,1.7-1.1s1.6.5,1.5,1.3h-.9c0-.4-.2-.6-.6-.6s-.6.2-.6.4h-.1ZM64.7,29.2c-1,0-1.8-.6-1.6-1.8v-.6c.3-1.1,1.1-1.8,2.1-1.8s1.7.8,1.5,1.8v.5h-2.6v.3c0,.5.2.7.7.7s0,0,0,0c.4,0,.6-.2.7-.5h.9c-.3.9-1,1.3-1.8,1.3h.1ZM64.3,26.7h1.5c0-.6,0-.9-.7-.9s-.8.3-.9.9h0ZM68.3,30.7l.2-.8h.3c.4,0,.7-.1,1.1-.8l.2-.4-.8-3.6h1l.5,2.4,1.4-2.4h1l-2.6,4.2c-.6,1.1-1.1,1.4-1.9,1.4h-.5.1ZM73,27.3v-.6c.4-1.1,1.1-1.6,2.1-1.6s1.8.8,1.6,1.9v.7c-.3,1-1.1,1.6-2.1,1.6s-1.8-.8-1.6-1.9h0ZM74.1,26.7v.6c-.2.6,0,1,.6,1s.9-.4,1-1v-.6c.2-.6,0-.9-.6-.9s-.8.3-1,.9ZM79.7,28.4c-.3.5-.8.8-1.3.8-.9,0-1.2-.6-1.1-1.4l.5-2.7h1l-.5,2.4c0,.6,0,.8.5.8s.9-.3,1-1l.4-2.2h1l-.8,4h-1v-.7h.3ZM81.7,29.1l.8-4h1v.7c.2-.5.7-.8,1.2-.8h.2l-.2,1h-.2c-.6,0-1.2.3-1.3,1.1l-.4,2h-1.1ZM86.8,27.3v-.6c.4-1.1,1.1-1.6,2.1-1.6s1.8.8,1.6,1.9v.7c-.3,1-1.1,1.6-2.1,1.6s-1.8-.8-1.6-1.9h0ZM87.9,26.7v.6c-.2.6,0,1,.6,1s.9-.4,1-1v-.6c.2-.6,0-.9-.6-.9s-.8.3-1,.9ZM93.5,28.4c-.3.5-.8.8-1.3.8-.9,0-1.2-.6-1.1-1.4l.5-2.7h1l-.5,2.4c0,.6,0,.8.5.8s.9-.3,1-1l.4-2.2h1l-.8,4h-1v-.7h.3ZM97.8,29.1h-.7c-.9,0-1.4-.3-1.2-1.3l.4-1.9h-.6l.2-.8h.6l.2-1.2h1l-.2,1.2h1.1l-.2.8h-1.1l-.4,1.9c0,.3,0,.5.4.5h.6l-.2.8h0ZM102.1,25.9h-1.6l-.6,3.2h-1l.6-3.2h-.6l.2-.8h.6v-.4c.3-.9.9-1.4,1.9-1.4h.4l-.2.8h-.3c-.5,0-.7.3-.8.7v.4h2.5l-.8,4h-1l.6-3.2h.1ZM102.4,23.8c0-.3.3-.5.7-.5s.6.2.5.6c0,.3-.4.5-.7.5s-.6-.2-.5-.6ZM106,29.1h-.7c-.9,0-1.4-.3-1.2-1.3l.4-1.9h-.6l.2-.8h.6l.2-1.2h1l-.2,1.2h1.1l-.2.8h-1.1l-.4,1.9c0,.3,0,.5.4.5h.6l-.2.8h0ZM107,28.5c0-.4.3-.6.7-.6s.6.3.5.6c0,.3-.3.6-.7.6s-.6-.3-.5-.6ZM108,23.5h1l-.8,3.9h-.9s.7-3.9.7-3.9ZM109.7,25.4l.7-1.9h1l-1.1,1.9h-.6ZM111.1,25.4l.7-1.9h1l-1.1,1.9h-.6Z" fill="#4d4d4d"/>
</svg>